<svg width="99" height="20" viewBox="0 0 99 20" fill="none" xmlns="http://www.w3.org/2000/svg">
<path d="M16.9233 16.8302C15.6021 18.2748 13.8917 19.2863 12.0083 19.737C10.1249 20.1876 8.15306 20.0571 6.34221 19.3618C4.53135 18.6666 2.96278 17.4379 1.83486 15.8312C0.70693 14.2244 0.0703083 12.3118 0.00549376 10.3351C-0.0593207 8.35838 0.450584 6.40642 1.47073 4.72603C2.49087 3.04564 3.97543 1.71231 5.73668 0.894629C7.49793 0.0769497 9.45676 -0.188346 11.3655 0.13229C13.2742 0.452926 15.047 1.34509 16.4599 2.69597L9.77997 10L16.9233 16.8302Z" fill="#48CA94" fill-opacity="0.5"/>
<path d="M17.6504 16.0352C18.4321 15.1805 19.0415 14.1766 19.4438 13.0811C19.8461 11.9855 20.0335 10.8196 19.9951 9.65005C19.9568 8.48045 19.6935 7.33004 19.2203 6.26448C18.7471 5.19892 18.0734 4.23909 17.2374 3.43979L12.9399 8.13884C13.1723 8.36109 13.3597 8.62797 13.4913 8.92425C13.6228 9.22054 13.696 9.54041 13.7067 9.86562C13.7174 10.1908 13.6653 10.515 13.5534 10.8196C13.4415 11.1243 13.2721 11.4034 13.0547 11.641L17.6504 16.0352Z" fill="#48CA94" fill-opacity="0.5"/>
<path d="M13.1404 12.8326C11.3983 14.7375 8.47578 14.8377 6.61279 13.0563C4.74981 11.275 4.65182 8.28676 6.39394 6.38186C8.13606 4.47696 11.0586 4.37678 12.9216 6.15809C14.7846 7.9394 14.8825 10.9277 13.1404 12.8326Z" fill="#48CA94"/>
<path d="M10.9282 10.717C11.5278 10.0614 11.4941 9.03298 10.8529 8.41992C10.2118 7.80686 9.20593 7.84134 8.60636 8.49693C8.00679 9.15253 8.04051 10.181 8.68168 10.794C9.32285 11.4071 10.3287 11.3726 10.9282 10.717Z" fill="#2B8C64"/>
<path d="M26.152 16V4.08H30.584C31.3947 4.08 32.1093 4.22933 32.728 4.528C33.3573 4.816 33.848 5.24267 34.2 5.808C34.552 6.36267 34.728 7.04 34.728 7.84C34.728 8.66133 34.5307 9.36 34.136 9.936C33.752 10.512 33.2293 10.9387 32.568 11.216L35.304 16H32.84L29.912 10.768L31.32 11.6H28.328V16H26.152ZM28.328 9.68H30.616C31.0107 9.68 31.352 9.60533 31.64 9.456C31.928 9.296 32.152 9.07733 32.312 8.8C32.472 8.52267 32.552 8.20267 32.552 7.84C32.552 7.46667 32.472 7.14667 32.312 6.88C32.152 6.60267 31.928 6.38933 31.64 6.24C31.352 6.08 31.0107 6 30.616 6H28.328V9.68ZM39.1978 16.192C38.3018 16.192 37.5178 15.9893 36.8458 15.584C36.1738 15.1787 35.6511 14.6293 35.2778 13.936C34.9044 13.2427 34.7178 12.4747 34.7178 11.632C34.7178 10.7573 34.9044 9.984 35.2778 9.312C35.6618 8.62933 36.1791 8.09067 36.8298 7.696C37.4911 7.30133 38.2271 7.104 39.0378 7.104C39.7204 7.104 40.3178 7.216 40.8298 7.44C41.3524 7.664 41.7951 7.97333 42.1578 8.368C42.5204 8.76267 42.7978 9.216 42.9898 9.728C43.1818 10.2293 43.2778 10.7733 43.2778 11.36C43.2778 11.5093 43.2671 11.664 43.2458 11.824C43.2351 11.984 43.2084 12.1227 43.1658 12.24H36.4457V10.64H41.9818L40.9898 11.392C41.0858 10.9013 41.0591 10.464 40.9098 10.08C40.7711 9.696 40.5364 9.392 40.2058 9.168C39.8858 8.944 39.4964 8.832 39.0378 8.832C38.6004 8.832 38.2111 8.944 37.8698 9.168C37.5284 9.38133 37.2671 9.70133 37.0858 10.128C36.9151 10.544 36.8511 11.0507 36.8938 11.648C36.8511 12.1813 36.9204 12.656 37.1018 13.072C37.2938 13.4773 37.5711 13.792 37.9338 14.016C38.3071 14.24 38.7338 14.352 39.2138 14.352C39.6938 14.352 40.0991 14.2507 40.4298 14.048C40.7711 13.8453 41.0378 13.5733 41.2298 13.232L42.9258 14.064C42.7551 14.48 42.4884 14.848 42.1258 15.168C41.7631 15.488 41.3311 15.7387 40.8298 15.92C40.3391 16.1013 39.7951 16.192 39.1978 16.192ZM48.0906 19.52C47.44 19.52 46.8373 19.4133 46.2826 19.2C45.728 18.9867 45.248 18.688 44.8426 18.304C44.448 17.9307 44.16 17.488 43.9786 16.976L45.9306 16.24C46.0586 16.6453 46.3093 16.9707 46.6826 17.216C47.0666 17.472 47.536 17.6 48.0906 17.6C48.5173 17.6 48.8906 17.52 49.2106 17.36C49.5413 17.2 49.7973 16.9653 49.9786 16.656C50.16 16.3573 50.2506 15.9947 50.2506 15.568V13.584L50.6506 14.064C50.352 14.5867 49.952 14.9813 49.4506 15.248C48.9493 15.5147 48.3786 15.648 47.7386 15.648C46.928 15.648 46.2026 15.4613 45.5626 15.088C44.9226 14.7147 44.4213 14.2027 44.0586 13.552C43.696 12.9013 43.5146 12.1707 43.5146 11.36C43.5146 10.5387 43.696 9.808 44.0586 9.168C44.4213 8.528 44.9173 8.02667 45.5466 7.664C46.176 7.29067 46.8906 7.104 47.6906 7.104C48.3413 7.104 48.912 7.24267 49.4026 7.52C49.904 7.78667 50.32 8.176 50.6506 8.688L50.3626 9.216V7.296H52.3466V15.568C52.3466 16.3253 52.16 17.0027 51.7866 17.6C51.424 18.1973 50.9226 18.6667 50.2826 19.008C49.6533 19.3493 48.9226 19.52 48.0906 19.52ZM47.9946 13.712C48.4426 13.712 48.832 13.616 49.1626 13.424C49.504 13.2213 49.7706 12.944 49.9626 12.592C50.1546 12.24 50.2506 11.8347 50.2506 11.376C50.2506 10.928 50.1493 10.528 49.9466 10.176C49.7546 9.81333 49.488 9.53067 49.1466 9.328C48.816 9.12533 48.432 9.024 47.9946 9.024C47.5573 9.024 47.1626 9.12533 46.8106 9.328C46.4586 9.53067 46.1813 9.81333 45.9786 10.176C45.7866 10.528 45.6906 10.928 45.6906 11.376C45.6906 11.824 45.7866 12.224 45.9786 12.576C46.1813 12.928 46.4533 13.2053 46.7946 13.408C47.1466 13.6107 47.5466 13.712 47.9946 13.712ZM55.7041 16L52.5041 4.08H54.8401L57.3521 14.24H56.7441L59.3681 4.08H61.6241L64.2321 14.24H63.6241L66.1361 4.08H68.4721L65.2721 16H62.7761L60.1361 6.112H60.8401L58.2001 16H55.7041ZM70.616 16.192C70.008 16.192 69.48 16.0907 69.032 15.888C68.584 15.6853 68.2373 15.3973 67.992 15.024C67.7467 14.64 67.624 14.1973 67.624 13.696C67.624 13.216 67.7307 12.7893 67.944 12.416C68.1573 12.032 68.488 11.712 68.936 11.456C69.384 11.2 69.9493 11.0187 70.632 10.912L73.48 10.448V12.048L71.032 12.464C70.616 12.5387 70.3067 12.672 70.104 12.864C69.9013 13.056 69.8 13.3067 69.8 13.616C69.8 13.9147 69.912 14.1547 70.136 14.336C70.3707 14.5067 70.6587 14.592 71 14.592C71.4373 14.592 71.8213 14.5013 72.152 14.32C72.4933 14.128 72.7547 13.8667 72.936 13.536C73.128 13.2053 73.224 12.8427 73.224 12.448V10.208C73.224 9.83467 73.0747 9.52533 72.776 9.28C72.488 9.024 72.104 8.896 71.624 8.896C71.176 8.896 70.776 9.01867 70.424 9.264C70.0827 9.49867 69.832 9.81333 69.672 10.208L67.96 9.376C68.1307 8.91733 68.3973 8.52267 68.76 8.192C69.1333 7.85067 69.5707 7.584 70.072 7.392C70.5733 7.2 71.1173 7.104 71.704 7.104C72.4187 7.104 73.048 7.23733 73.592 7.504C74.136 7.76 74.5573 8.12267 74.856 8.592C75.1653 9.05067 75.32 9.58933 75.32 10.208V16H73.336V14.512L73.784 14.48C73.56 14.8533 73.2933 15.168 72.984 15.424C72.6747 15.6693 72.3227 15.8613 71.928 16C71.5333 16.128 71.096 16.192 70.616 16.192ZM80.069 16.096C79.0877 16.096 78.325 15.8293 77.781 15.296C77.2477 14.752 76.981 13.9893 76.981 13.008V9.168H75.477V7.296H75.637C76.0637 7.296 76.3943 7.184 76.629 6.96C76.8637 6.736 76.981 6.41067 76.981 5.984V5.312H79.077V7.296H81.077V9.168H79.077V12.896C79.077 13.184 79.125 13.4293 79.221 13.632C79.3277 13.8347 79.4877 13.9893 79.701 14.096C79.925 14.2027 80.2077 14.256 80.549 14.256C80.6237 14.256 80.709 14.2507 80.805 14.24C80.9117 14.2293 81.013 14.2187 81.109 14.208V16C80.9597 16.0213 80.789 16.0427 80.597 16.064C80.405 16.0853 80.229 16.096 80.069 16.096ZM85.8243 16.192C84.9603 16.192 84.1816 15.9947 83.4883 15.6C82.8056 15.1947 82.2669 14.6507 81.8723 13.968C81.4776 13.2747 81.2803 12.496 81.2803 11.632C81.2803 10.768 81.4776 9.99467 81.8723 9.312C82.2669 8.62933 82.8056 8.09067 83.4883 7.696C84.1816 7.30133 84.9603 7.104 85.8243 7.104C86.4429 7.104 87.0189 7.216 87.5523 7.44C88.0856 7.65333 88.5443 7.952 88.9283 8.336C89.3229 8.70933 89.6056 9.15733 89.7763 9.68L87.9363 10.48C87.7763 10.0427 87.5043 9.69067 87.1203 9.424C86.7469 9.15733 86.3149 9.024 85.8243 9.024C85.3656 9.024 84.9549 9.136 84.5923 9.36C84.2403 9.584 83.9629 9.89333 83.7603 10.288C83.5576 10.6827 83.4563 11.136 83.4563 11.648C83.4563 12.16 83.5576 12.6133 83.7603 13.008C83.9629 13.4027 84.2403 13.712 84.5923 13.936C84.9549 14.16 85.3656 14.272 85.8243 14.272C86.3256 14.272 86.7629 14.1387 87.1363 13.872C87.5096 13.6053 87.7763 13.248 87.9363 12.8L89.7763 13.632C89.6056 14.1227 89.3283 14.5653 88.9443 14.96C88.5603 15.344 88.1016 15.648 87.5683 15.872C87.0349 16.0853 86.4536 16.192 85.8243 16.192ZM90.3666 16V3.888H92.4626V9.008L92.1746 8.704C92.3773 8.18133 92.708 7.78667 93.1666 7.52C93.636 7.24267 94.18 7.104 94.7986 7.104C95.4386 7.104 96.004 7.24267 96.4946 7.52C96.996 7.79733 97.3853 8.18667 97.6626 8.688C97.94 9.17867 98.0786 9.74933 98.0786 10.4V16H95.9826V10.896C95.9826 10.512 95.908 10.1813 95.7586 9.904C95.6093 9.62667 95.4013 9.41333 95.1346 9.264C94.8786 9.104 94.5746 9.024 94.2226 9.024C93.8813 9.024 93.5773 9.104 93.3106 9.264C93.044 9.41333 92.836 9.62667 92.6866 9.904C92.5373 10.1813 92.4626 10.512 92.4626 10.896V16H90.3666Z" fill="#1B2056"/>
</svg>
